HIERARCHY
ROOT Hips
{
	OFFSET 0.00 0.00 0.00
	CHANNELS 6 Xposition Yposition Zposition Zrotation Xrotation Yrotation
	JOINT Spine
	{
		OFFSET 0 13.7848 0.0644
		CHANNELS 3 Zrotation Xrotation Yrotation
		JOINT Spine1
		{
			OFFSET 0 12.0447 -0
			CHANNELS 3 Zrotation Xrotation Yrotation
			JOINT Spine2
			{
				OFFSET -0 17.8005 -0
				CHANNELS 3 Zrotation Xrotation Yrotation
				JOINT Neck
				{
					OFFSET 0 40.9166 -0
					CHANNELS 3 Zrotation Xrotation Yrotation
					JOINT Head
					{
						OFFSET -0 21.2887 0
						CHANNELS 3 Zrotation Xrotation Yrotation
						JOINT HeadTop_End
						{
							OFFSET 0 17.4474 0
							CHANNELS 3 Zrotation Xrotation Yrotation
						}
					}
				}
				JOINT LeftShoulder
				{
					OFFSET 17.3995 23.8766 -6.0721
					CHANNELS 3 Zrotation Xrotation Yrotation
					JOINT LeftArm
					{
						OFFSET -0 19.9201 -0
						CHANNELS 3 Zrotation Xrotation Yrotation
						JOINT LeftForeArm
						{
							OFFSET -0 49.2901 -0
							CHANNELS 3 Zrotation Xrotation Yrotation
							JOINT LeftHand
							{
								OFFSET 0 31.562 0
								CHANNELS 3 Zrotation Xrotation Yrotation
								JOINT LeftHandThumb1
								{
									OFFSET -7.9466 6.134 2.4863
									CHANNELS 3 Zrotation Xrotation Yrotation
									JOINT LeftHandThumb2
									{
										OFFSET -0.0255 -7.7944 -0.0327
										CHANNELS 3 Zrotation Xrotation Yrotation
										JOINT LeftHandThumb3
										{
											OFFSET -0.0205 -8.3869 0.0307
											CHANNELS 3 Zrotation Xrotation Yrotation
											JOINT LeftHandThumb4
											{
												OFFSET 0.0565 -7.2511 -0.013
												CHANNELS 3 Zrotation Xrotation Yrotation
											}
										}
									}
								}
								JOINT LeftHandPinky1
								{
									OFFSET 10.9531 18.9207 3.2871
									CHANNELS 3 Zrotation Xrotation Yrotation
									JOINT LeftHandPinky2
									{
										OFFSET -0.0034 -4.9187 0.0963
										CHANNELS 3 Zrotation Xrotation Yrotation
										JOINT LeftHandPinky3
										{
											OFFSET 0.0758 -5.2323 0.0358
											CHANNELS 3 Zrotation Xrotation Yrotation
											JOINT LeftHandPinky4
											{
												OFFSET -0.1312 -5.5702 0.001
												CHANNELS 3 Zrotation Xrotation Yrotation
											}
										}
									}
								}
								JOINT LeftHandRing1
								{
									OFFSET 6.2716 22.7261 1.7123
									CHANNELS 3 Zrotation Xrotation Yrotation
									JOINT LeftHandRing2
									{
										OFFSET -0.0452 -6.4083 0.0434
										CHANNELS 3 Zrotation Xrotation Yrotation
										JOINT LeftHandRing3
										{
											OFFSET -0.1152 -6.1487 -0.0756
											CHANNELS 3 Zrotation Xrotation Yrotation
											JOINT LeftHandRing4
											{
												OFFSET -0.2306 -6.141 -0.0323
												CHANNELS 3 Zrotation Xrotation Yrotation
											}
										}
									}
								}
								JOINT LeftHandMiddle1
								{
									OFFSET -0 23.374 -0
									CHANNELS 3 Zrotation Xrotation Yrotation
									JOINT LeftHandMiddle2
									{
										OFFSET -0.1878 -6.9921 -0.168
										CHANNELS 3 Zrotation Xrotation Yrotation
										JOINT LeftHandMiddle3
										{
											OFFSET -0.0477 -7.0158 0.0144
											CHANNELS 3 Zrotation Xrotation Yrotation
											JOINT LeftHandMiddle4
											{
												OFFSET -0.0402 -7.7215 -0.0133
												CHANNELS 3 Zrotation Xrotation Yrotation
											}
										}
									}
								}
								JOINT LeftHandIndex1
								{
									OFFSET -6.1355 21.3106 -1.073
									CHANNELS 3 Zrotation Xrotation Yrotation
									JOINT LeftHandIndex2
									{
										OFFSET 0.0766 -7.536 -0.0238
										CHANNELS 3 Zrotation Xrotation Yrotation
										JOINT LeftHandIndex3
										{
											OFFSET -0.0927 -7.5116 0.0451
											CHANNELS 3 Zrotation Xrotation Yrotation
											JOINT LeftHandIndex4
											{
												OFFSET -0.0002 -10.2123 -0.0339
												CHANNELS 3 Zrotation Xrotation Yrotation
											}
										}
									}
								}
							}
						}
					}
				}
				JOINT RightShoulder
				{
					OFFSET -17.3995 23.8766 -6.0721
					CHANNELS 3 Zrotation Xrotation Yrotation
					JOINT RightArm
					{
						OFFSET 0 19.9201 0
						CHANNELS 3 Zrotation Xrotation Yrotation
						JOINT RightForeArm
						{
							OFFSET 0 49.2901 0
							CHANNELS 3 Zrotation Xrotation Yrotation
							JOINT RightHand
							{
								OFFSET -0 31.562 0
								CHANNELS 3 Zrotation Xrotation Yrotation
								JOINT RightHandThumb1
								{
									OFFSET 7.9466 6.134 2.4863
									CHANNELS 3 Zrotation Xrotation Yrotation
									JOINT RightHandThumb2
									{
										OFFSET 0.0255 -7.7944 -0.0327
										CHANNELS 3 Zrotation Xrotation Yrotation
										JOINT RightHandThumb3
										{
											OFFSET 0.0205 -8.3869 0.0307
											CHANNELS 3 Zrotation Xrotation Yrotation
											JOINT RightHandThumb4
											{
												OFFSET -0.0565 -7.2511 -0.013
												CHANNELS 3 Zrotation Xrotation Yrotation
											}
										}
									}
								}
								JOINT RightHandIndex1
								{
									OFFSET 6.1355 21.3106 -1.073
									CHANNELS 3 Zrotation Xrotation Yrotation
									JOINT RightHandIndex2
									{
										OFFSET -0.0766 -7.536 -0.0238
										CHANNELS 3 Zrotation Xrotation Yrotation
										JOINT RightHandIndex3
										{
											OFFSET 0.0927 -7.5116 0.0451
											CHANNELS 3 Zrotation Xrotation Yrotation
											JOINT RightHandIndex4
											{
												OFFSET 0.0002 -10.2123 -0.0339
												CHANNELS 3 Zrotation Xrotation Yrotation
											}
										}
									}
								}
								JOINT RightHandMiddle1
								{
									OFFSET 0 23.374 -0
									CHANNELS 3 Zrotation Xrotation Yrotation
									JOINT RightHandMiddle2
									{
										OFFSET 0.1878 -6.9921 -0.168
										CHANNELS 3 Zrotation Xrotation Yrotation
										JOINT RightHandMiddle3
										{
											OFFSET 0.0477 -7.0158 0.0144
											CHANNELS 3 Zrotation Xrotation Yrotation
											JOINT RightHandMiddle4
											{
												OFFSET 0.0402 -7.7215 -0.0133
												CHANNELS 3 Zrotation Xrotation Yrotation
											}
										}
									}
								}
								JOINT RightHandRing1
								{
									OFFSET -6.2716 22.7261 1.7123
									CHANNELS 3 Zrotation Xrotation Yrotation
									JOINT RightHandRing2
									{
										OFFSET 0.0452 -6.4083 0.0434
										CHANNELS 3 Zrotation Xrotation Yrotation
										JOINT RightHandRing3
										{
											OFFSET 0.1152 -6.1487 -0.0756
											CHANNELS 3 Zrotation Xrotation Yrotation
											JOINT RightHandRing4
											{
												OFFSET 0.2306 -6.141 -0.0323
												CHANNELS 3 Zrotation Xrotation Yrotation
											}
										}
									}
								}
								JOINT RightHandPinky1
								{
									OFFSET -10.9531 18.9207 3.2871
									CHANNELS 3 Zrotation Xrotation Yrotation
									JOINT RightHandPinky2
									{
										OFFSET 0.0034 -4.9187 0.0963
										CHANNELS 3 Zrotation Xrotation Yrotation
										JOINT RightHandPinky3
										{
											OFFSET -0.0758 -5.2323 0.0358
											CHANNELS 3 Zrotation Xrotation Yrotation
											JOINT RightHandPinky4
											{
												OFFSET 0.1312 -5.5702 0.001
												CHANNELS 3 Zrotation Xrotation Yrotation
											}
										}
									}
								}
							}
						}
					}
				}
			}
		}
	}
	JOINT LeftUpLeg
	{
		OFFSET 19.8991 -7.8851 -3.4295
		CHANNELS 3 Zrotation Xrotation Yrotation
		JOINT LeftLeg
		{
			OFFSET -0 38.4457 -0
			CHANNELS 3 Zrotation Xrotation Yrotation
			JOINT LeftFoot
			{
				OFFSET -0.1321 32.8117 -0.1889
				CHANNELS 3 Zrotation Xrotation Yrotation
				JOINT LeftToeBase
				{
					OFFSET 0 24.02 0
					CHANNELS 3 Zrotation Xrotation Yrotation
					JOINT LeftToe_End
					{
						OFFSET -0 16.6166 -0
						CHANNELS 3 Zrotation Xrotation Yrotation
					}
				}
			}
		}
	}
	JOINT RightUpLeg
	{
		OFFSET -19.8991 -7.8851 -3.4295
		CHANNELS 3 Zrotation Xrotation Yrotation
		JOINT RightLeg
		{
			OFFSET 0 38.4457 -0
			CHANNELS 3 Zrotation Xrotation Yrotation
			JOINT RightFoot
			{
				OFFSET 0.1321 32.8117 -0.1889
				CHANNELS 3 Zrotation Xrotation Yrotation
				JOINT RightToeBase
				{
					OFFSET -0 24.02 0
					CHANNELS 3 Zrotation Xrotation Yrotation
					JOINT RightToe_End
					{
						OFFSET 0 16.6166 -0
						CHANNELS 3 Zrotation Xrotation Yrotation
					}
				}
			}
		}
	}
}
MOTION
Frames: 7
Frame Time: 0.0333333
-1.3411	56.3995	2.4058	7.75816	22.7563	-4.17934	-9.5665	26.2212	1.44146	-1.0477	-1.13084	-0.607818	-0.83283	15.084	-0.651964	-1.1077	28.5545	-0.880509	2.53077	-84.6958	-1.01688	-0	-55.7115	-0	-94.7586	7.36102	14.153	-36.9029	16.9401	15.0595	77.8755	26.3398	-51.1803	10.5249	16.4399	14.7745	-132.531	2.2688	-132.969	24.2991	-2.39601	6.35438	54.8561	-7.54003	-14.4479	-8.6489	-1.81523	-33.3438	146.268	-25.8827	-162.011	8.855	46.922	-16.6779	24.0801	58.1404	-33.0734	-0.569979	-8.19974	-4.84949	147.39	19.6966	-165.12	-4.53849	81.1014	2.97119	2.50816	35.7841	-7.72723	-0	-6.0471	-0	169.721	32.1349	177.257	-57.5913	72.4194	61.9767	-20.9614	62.3992	18.1424	0.291655	-5.22659	-2.24865	-161.363	-2.79256	161.839	-23.1081	34.4884	26.4279	-24.9986	34.4561	28.7594	-2.39024	-0.645758	5.07582	86.363	13.9265	-13.061	57.1201	13.2108	-35.4549	-67.3215	11.4836	21.7648	-33.6083	3.74856	33.4713	128.08	-1.90575	133.85	-31.5618	-8.77933	-9.09333	10.6724	-27.4729	41.7705	8.6489	-1.81523	33.3438	164.985	5.91909	-161.919	12.2512	24.9034	-15.053	8.70914	18.1908	-12.1768	2.39024	-0.645758	-5.07582	-157.12	44.3393	172.178	18.6925	57.7602	-23.9349	3.91209	22.4819	-2.4697	-0.291655	-5.22659	2.24865	-147.51	35.5525	165.198	0.859986	76.474	-0.116723	-1.91102	28.3312	6.23794	-0	-6.0471	-0	-150.127	-25.6679	177.386	-4.59241	34.8972	9.69607	-2.90055	24.7138	5.76939	0.569979	-8.19974	4.84949	-63.447	55.7425	-126.181	149.146	-61.0327	156.206	-32.6797	63.4449	27.1446	-3.82138	58.4976	5.20929	-0.214127	1.01299	0.205132	108.074	40.1644	54.798	-172.81	-48.265	-166.024	143.94	57.2506	-114.515	0.595518	59.2328	0.117291	0.214127	1.01299	-0.205132
-1.118	55.1905	2.2301	5.83136	23.7633	-2.91743	-7.2459	28.8717	1.435	-0.498241	-1.05394	-0.627406	-0.269653	15.1605	-0.662042	-0.762457	27.7265	-1.17481	79.7988	-83.7418	72.2531	-0	-55.7115	-0	-96.5155	6.81814	14.2678	-33.6252	23.1295	11.2503	71.6178	28.5769	-37.5789	6.46204	6.05527	4.69405	-132.594	2.3056	-132.95	23.5341	-3.44823	5.26426	46.1458	-10.3935	-17.3234	-8.6489	-1.81523	-33.3438	142.922	-23.1715	-161.45	9.07056	47.3329	-16.9758	21.8147	56.6865	-30.5093	-0.569979	-8.19974	-4.84949	145.694	17.698	-163.895	-10.4504	86.0451	8.15834	2.63127	36.9744	-7.97665	-0	-6.0471	-0	163.264	35.3701	-179.993	-56.3837	72.2813	60.8143	-19.0679	60.6258	16.3453	0.291655	-5.22659	-2.24865	-165.579	4.86855	159.953	-24.2275	35.2446	27.5994	-21.3152	31.6663	25.0516	-2.39024	-0.645758	5.07582	86.7543	18.3231	-12.6386	53.2077	8.15247	-33.8417	-65.1268	15.5681	20.9217	-28.148	-4.22055	38.2608	129.231	-1.69449	133.393	-30.9102	-8.29586	-8.77867	8.8288	-29.7139	43.3656	8.6489	-1.81523	33.3438	164.684	6.14147	-160.941	12.1157	24.7094	-14.9074	9.88313	19.7608	-13.3689	2.39024	-0.645758	-5.07582	-158.235	44.1262	173.434	20.0605	58.6945	-25.2612	4.21775	23.8761	-2.67168	-0.291655	-5.22659	2.24865	-147.598	34.2923	164.973	1.92288	79.9405	-0.631486	-2.10041	31.031	6.79264	-0	-6.0471	-0	-150.843	-23.35	176.604	-5.00835	36.3912	10.4704	-5.40918	32.9237	9.83862	0.569979	-8.19974	4.84949	-55.5964	54.5455	-133.032	148.919	-58.7277	155.305	-31.7523	62.6458	26.0581	-3.51713	58.3973	5.20895	-0.214127	1.01299	0.205132	109.423	39.8695	54.3437	-173.899	-47.4588	-167.607	145.569	56.2564	-115.661	0.267017	60.2663	0.0842793	0.214127	1.01299	-0.205132
-1.0769	54.1626	1.9923	4.68832	24.2153	-1.15384	-5.51532	29.8465	0.882685	-0.101954	-1.1314	-0.777552	0.190073	15.0836	-0.809905	-0.700067	26.8428	-1.07583	98.2732	-81.3948	88.9115	-0	-55.7115	-0	-96.127	10.8974	14.1472	-32.1436	17.9971	9.34629	67.1638	32.9655	-29.6045	2.87938	1.6507	-3.67413	-132.593	2.305	-132.951	23.8475	-3.7939	5.3258	43.9637	-9.84044	-19.5293	-8.6489	-1.81523	-33.3438	142.172	-22.5147	-161.348	8.7799	46.8193	-16.5709	18.0701	53.744	-26.2128	-0.569979	-8.19974	-4.84949	144.553	21.2832	-163.409	-21.9876	88.126	19.3851	2.43167	35.2699	-7.51885	-0	-6.0471	-0	162.269	37.3992	179.35	-50.6667	71.4913	55.2022	-15.9704	57.117	13.4031	0.291655	-5.22659	-2.24865	-166.387	7.28387	158.335	-23.4982	34.7515	26.8507	-18.0383	28.781	21.7535	-2.39024	-0.645758	5.07582	87.3517	20.9285	-12.461	48.5916	4.84989	-29.7734	-64.0913	19.8883	15.7344	-29.3685	-8.98565	39.2225	130.402	-1.47864	132.93	-30.2215	-7.78153	-8.44694	7.84462	-32.2182	45.5403	8.6489	-1.81523	33.3438	164.743	6.91468	-160.079	12.1721	24.7375	-14.9652	10.3637	20.3397	-13.8537	2.39024	-0.645758	-5.07582	-157.613	43.3751	173.072	19.5311	58.0742	-24.7526	4.79173	26.3901	-3.12348	-0.291655	-5.22659	2.24865	-146.978	33.3528	164.219	2.94529	81.67	-1.37236	-2.28052	33.21	7.25674	-0	-6.0471	-0	-150.477	-20.9179	176.175	-5.26898	37.3171	10.9567	-8.54424	40.1562	14.285	0.569979	-8.19974	4.84949	-49.4867	54.1829	-138.626	148.272	-57.6244	154.174	-30.723	61.1967	24.6012	-3.22844	58.421	5.00794	-0.214127	1.01299	0.205132	110.326	38.0642	53.7402	-174.664	-46.4527	-169.633	148.203	54.8046	-118.077	-0.106411	61.3203	0.0750136	0.214127	1.01299	-0.205132
-1.1944	53.3292	1.8491	4.69065	24.942	0.0693698	-5.42217	30.4331	-0.067964	-0.200272	-1.45629	-0.974615	0.170698	14.7601	-1.01727	-0.882096	26.6393	-0.617334	111.715	-83.4597	105.735	-0	-55.7115	-0	-95.2346	14.6221	13.9376	-32.4666	11.5359	9.23575	72.203	31.0275	-34.7817	1.32693	-2.00578	-6.53902	-132.593	2.30508	-132.951	24.0315	-4.26949	5.23366	41.2238	-9.63636	-21.6131	-8.6489	-1.81523	-33.3438	141.881	-22.3165	-161.367	8.34555	46.015	-15.9608	14.9976	50.7305	-22.5896	-0.569979	-8.19974	-4.84949	143.574	23.127	-163.053	-46.2084	89.0458	43.4518	2.22822	33.2962	-7.01883	-0	-6.0471	-0	160.628	39.4938	179.229	-44.2817	70.2911	48.9403	-13.4248	53.5177	11.0178	0.291655	-5.22659	-2.24865	-167.246	9.60049	156.961	-22.9372	34.361	26.2758	-15.2375	25.9636	18.9366	-2.39024	-0.645758	5.07582	88.2561	21.5056	-12.552	44.3649	4.89557	-26.1777	-61.0455	21.6706	6.24032	-36.3686	-11.5687	38.2607	131.551	-1.26565	132.476	-29.5317	-7.26183	-8.11573	5.10876	-34.5201	45.8319	8.6489	-1.81523	33.3438	164.755	7.11518	-159.619	13.0311	25.6701	-15.8711	11.3127	21.5174	-14.8187	2.39024	-0.645758	-5.07582	-157.64	40.6666	173.133	19.4313	57.8151	-24.6609	5.69712	30.0413	-3.89267	-0.291655	-5.22659	2.24865	-146.514	31.9346	163.65	4.7427	83.8734	-2.82239	-2.44546	34.9662	7.64247	-0	-6.0471	-0	-149.329	-18.8399	176.222	-6.15953	39.9321	12.4479	-13.0879	47.417	20.1103	0.569979	-8.19974	4.84949	-45.8489	53.7989	-142.562	147.902	-57.4524	153.658	-30.0703	60.0186	23.6465	-3.1591	58.3206	5.19514	-0.214127	1.01299	0.205132	109.822	36.4496	53.7833	-175.28	-45.2281	-171.431	150.768	53.2609	-120.536	-0.464819	62.2942	0.0197879	0.214127	1.01299	-0.205132
-1.3696	52.6201	1.7817	5.10143	25.7453	0.452299	-5.11923	31.0446	-1.25089	-0.54169	-1.73496	-1.13902	-0.106891	14.4809	-1.196	-1.7187	26.2765	-0.16829	-160.687	-86.687	-158.368	-0	-55.7115	-0	-94.3383	15.3662	13.7501	-33.5426	10.3742	8.55721	77.6909	26.0672	-38.9334	3.79259	-7.18662	-7.76971	-132.593	2.305	-132.951	24.6569	-3.9244	5.85267	38.3495	-9.76864	-24.1272	-8.6489	-1.81523	-33.3438	141.358	-23.2923	-162.037	8.14555	45.6354	-15.6755	12.6088	47.8857	-19.685	-0.569979	-8.19974	-4.84949	143.368	24.6011	-163.472	-100.666	89.3108	97.7969	2.06288	31.4785	-6.57567	-0	-6.0471	-0	160.147	40.9453	178.472	-39.2305	69.0444	44.0024	-11.5005	50.2352	9.24699	0.291655	-5.22659	-2.24865	-167.774	11.4801	155.596	-22.2114	33.8419	25.5285	-12.78	23.1857	16.466	-2.39024	-0.645758	5.07582	88.2849	22.9554	-12.3967	42.8819	2.69695	-25.2924	-61.5242	20.3394	1.30988	-41.0182	-13.5357	36.1497	132.636	-1.06337	132.047	-28.8758	-6.76281	-7.80182	0.365917	-36.2668	44.048	8.6489	-1.81523	33.3438	164.745	6.51112	-159.827	14.7016	27.414	-17.631	12.4462	22.877	-15.9734	2.39024	-0.645758	-5.07582	-158.798	37.4286	174.125	18.7042	57.0323	-23.9618	6.39753	32.6368	-4.4839	-0.291655	-5.22659	2.24865	-146.712	29.5424	163.695	5.67431	84.254	-3.68116	-2.44996	35.0841	7.64474	-0	-6.0471	-0	-148.385	-17.6914	176.558	-7.09903	42.338	13.9313	-16.1379	51.0127	23.8099	0.569979	-8.19974	4.84949	-44.0197	53.0695	-144.75	147.854	-57.3272	153.654	-30.1773	59.4451	23.3725	-3.18973	58.1116	5.50657	-0.214127	1.01299	0.205132	108.532	35.768	54.3967	-175.623	-43.9656	-172.74	152.277	52.2496	-122.212	-0.737249	62.9385	-0.0180241	0.214127	1.01299	-0.205132
-1.4813	52.056	1.717	5.29029	25.9651	0.409094	-4.02995	31.0504	-2.30012	-0.749045	-1.80727	-1.25052	-0.269843	14.4058	-1.3164	-2.84276	25.7537	0.150666	-112.577	-79.323	-102.693	-0	-55.7115	-0	-93.5532	15.2799	13.5993	-34.3187	10.4824	6.80103	80.4741	24.914	-35.3928	6.77754	-9.62993	-11.0182	-132.593	2.305	-132.951	25.9955	-3.73045	6.88897	38.8064	-8.35252	-25.7408	-8.6489	-1.81523	-33.3438	141.549	-23.9789	-162.376	7.90488	45.1645	-15.3304	10.4071	44.7434	-16.9216	-0.569979	-8.19974	-4.84949	143.305	28.1421	-163.903	-90.482	89.3219	87.6335	1.87903	29.1322	-6.03667	-0	-6.0471	-0	162.553	41.6405	175.935	-34.3103	67.5018	39.2042	-9.99451	47.2453	7.88709	0.291655	-5.22659	-2.24865	-166.743	11.0846	154.023	-20.7921	32.7774	24.0576	-10.3177	20.0741	13.9851	-2.39024	-0.645758	5.07582	87.7904	25.1532	-12.0765	42.8424	-1.81789	-25.2814	-64.6312	18.3784	1.01202	-43.3241	-14.7412	33.6545	133.617	-0.879845	131.661	-28.2885	-6.31098	-7.52124	-1.59606	-38.1399	44.3285	8.6489	-1.81523	33.3438	164.532	5.68827	-159.872	16.147	28.8181	-19.1502	13.3675	23.9297	-16.9128	2.39024	-0.645758	-5.07582	-160.523	34.8614	175.559	17.9925	56.2536	-23.2781	6.78829	34.0228	-4.79619	-0.291655	-5.22659	2.24865	-146.686	27.0913	163.676	5.20105	83.1774	-3.35304	-2.37211	34.3891	7.45554	-0	-6.0471	-0	-147.789	-15.727	176.384	-7.34485	42.9722	14.3258	-16.9776	51.8867	24.8272	0.569979	-8.19974	4.84949	-43.0882	52.4409	-145.674	147.983	-56.825	153.764	-30.4346	59.2391	23.3397	-3.12447	58.0858	5.43272	-0.214127	1.01299	0.205132	107.667	35.4513	54.7835	-175.614	-43.0124	-173.651	152.972	51.7212	-123.298	-0.917343	63.0499	0.116942	0.214127	1.01299	-0.205132
-1.5563	51.6525	1.6765	5.16189	25.9423	0.336509	-3.31585	31.9203	-2.9005	-0.651182	-1.74573	-1.32862	-0.13854	14.4663	-1.39504	-2.93493	25.8295	0.245419	-111.773	-75.3301	-101.265	-0	-55.7115	-0	-93.1397	16.1904	13.5474	-36.1639	9.41993	5.40196	83.2292	24.0991	-33.5201	7.54803	-9.51236	-13.9737	-132.593	2.305	-132.951	25.5322	-4.04607	6.41736	38.5589	-7.04876	-26.4873	-8.6489	-1.81523	-33.3438	142.523	-22.5696	-161.417	7.32671	43.9651	-14.4926	8.40052	41.3073	-14.3048	-0.569979	-8.19974	-4.84949	142.476	30.6728	-163.491	-31.4981	88.6761	28.8172	1.70194	26.4149	-5.44426	-0	-6.0471	-0	162.94	43.1287	174.777	-30.4663	66.0119	35.4716	-8.85889	44.7055	6.88437	0.291655	-5.22659	-2.24865	-166.346	11.6342	152.664	-20.1333	32.2598	23.377	-8.33535	17.3029	11.9899	-2.39024	-0.645758	5.07582	87.8817	25.8636	-12.0428	41.8714	-4.29356	-25.2177	-66.5249	17.0471	2.19979	-45.8972	-15.6073	31.5318	134.451	-0.723087	131.333	-27.8038	-5.9334	-7.28946	-2.56125	-39.7793	45.079	8.6489	-1.81523	33.3438	164.285	4.92172	-159.843	16.3103	28.9554	-19.3229	13.3544	23.88	-16.8998	2.39024	-0.645758	-5.07582	-162.254	32.2905	176.868	16.9544	55.1488	-22.2794	7.05632	34.9557	-5.00627	-0.291655	-5.22659	2.24865	-146.488	25.186	163.559	4.70243	82.006	-3.01568	-2.29239	33.6298	7.25671	-0	-6.0471	-0	-147.106	-13.492	176.102	-7.3708	43.0925	14.3858	-17.4342	52.3472	25.3853	0.569979	-8.19974	4.84949	-42.1471	52.027	-146.284	148.139	-56.1736	153.643	-30.5825	59.1102	23.3886	-2.95276	58.3049	4.99355	-0.214127	1.01299	0.205132	107.679	35.3344	54.622	-175.615	-42.5031	-174.258	153.564	51.2406	-124.029	-1.05211	62.7721	0.494617	0.214127	1.01299	-0.205132
